<svg width="32" height="32" viewBox="0 0 32 32" fill="none" xmlns="http://www.w3.org/2000/svg">
<path opacity="0.4" d="M2.10229 4.81999C2.10229 3.34723 3.2962 2.15332 4.76896 2.15332H11.3334C12.8062 2.15332 14.0001 3.34723 14.0001 4.81999V11.3844C14.0001 12.8572 12.8062 14.0511 11.3334 14.0511H4.76896C3.2962 14.0511 2.10229 12.8572 2.10229 11.3844V4.81999Z" fill="white"/>
<path opacity="0.4" d="M18 20.7178C18 19.245 19.1939 18.0511 20.6667 18.0511H27.2311C28.7039 18.0511 29.8978 19.245 29.8978 20.7178V27.2822C29.8978 28.755 28.7039 29.9489 27.2311 29.9489H20.6667C19.1939 29.9489 18 28.755 18 27.2822V20.7178Z" fill="white"/>
<circle cx="8.05118" cy="24" r="5.94889" fill="white"/>
<path fill-rule="evenodd" clip-rule="evenodd" d="M18.6667 8C18.6667 7.44772 19.1145 7 19.6667 7H28.3334C28.8857 7 29.3334 7.44772 29.3334 8C29.3334 8.55228 28.8857 9 28.3334 9H19.6667C19.1145 9 18.6667 8.55228 18.6667 8Z" fill="white"/>
</svg>
