<svg width="32" height="32" viewBox="0 0 32 32" fill="none" xmlns="http://www.w3.org/2000/svg">
<path opacity="0.4" d="M27.9602 27.7729L27.8532 28.6371C27.8099 28.9871 27.4449 29.1994 27.1192 29.064L26.2818 28.7159C25.18 28.2579 24.2605 27.4645 23.6615 26.4547L16 13.5409L8.33855 26.4547C7.73948 27.4645 6.82003 28.2579 5.71821 28.7159L4.88077 29.064C4.55511 29.1994 4.19009 28.9871 4.14676 28.6371L4.03976 27.7729C3.89645 26.6153 4.14281 25.4437 4.74188 24.4339L12.4319 11.472C13.1476 12.6382 14.4499 13.4241 15.9424 13.4438L16 13.4442L16.0576 13.4438C17.5501 13.4241 18.8524 12.6382 19.5681 11.4721L27.2581 24.4339C27.8572 25.4437 28.1036 26.6153 27.9602 27.7729Z" fill="white"/>
<path d="M16.0005 1.66699C16.5526 1.66724 17.0005 2.11486 17.0005 2.66699L16.9995 5.47949C18.8103 5.9149 20.1527 7.5057 20.1528 9.40234C20.1528 10.1586 19.9393 10.8664 19.5679 11.4717C18.8522 12.6377 17.5504 13.4235 16.0581 13.4434C16.0391 13.4436 16.0196 13.4443 16.0005 13.4443C15.9814 13.4443 15.9619 13.4436 15.9429 13.4434C14.4504 13.4236 13.1478 12.6379 12.4321 11.4717C12.0607 10.8664 11.8472 10.1586 11.8472 9.40234C11.8473 7.50576 13.1898 5.91496 15.0005 5.47949V2.66699C15.0005 2.11471 15.4482 1.66699 16.0005 1.66699Z" fill="white"/>
<path fill-rule="evenodd" clip-rule="evenodd" d="M3 20C3 19.4477 3.44772 19 4 19H28C28.5523 19 29 19.4477 29 20C29 20.5523 28.5523 21 28 21H4C3.44772 21 3 20.5523 3 20Z" fill="white"/>
</svg>
