<svg width="32" height="32" viewBox="0 0 32 32" fill="none" xmlns="http://www.w3.org/2000/svg">
<path opacity="0.4" d="M14.8963 28.8317L4.00352 23.8804C2.96139 23.4067 2.96139 21.9265 4.00352 21.4528L14.8963 16.5015C15.5974 16.1828 16.4021 16.1828 17.1033 16.5015L27.996 21.4528C29.0382 21.9265 29.0382 23.4068 27.996 23.8804L17.1033 28.8317C16.4021 29.1504 15.5974 29.1504 14.8963 28.8317Z" fill="white"/>
<path d="M14.8963 22.1651L4.00352 17.2138C2.96139 16.7401 2.96139 15.2599 4.00352 14.7862L14.8963 9.83491C15.5974 9.51621 16.4021 9.51621 17.1033 9.83491L27.996 14.7862C29.0382 15.2599 29.0382 16.7401 27.996 17.2138L17.1033 22.1651C16.4021 22.4838 15.5974 22.4838 14.8963 22.1651Z" fill="white"/>
<path opacity="0.4" d="M14.8963 15.4984L4.00352 10.5471C2.96139 10.0734 2.96139 8.59318 4.00352 8.11949L14.8963 3.16822C15.5974 2.84952 16.4021 2.84953 17.1033 3.16822L27.996 8.11949C29.0382 8.59318 29.0382 10.0734 27.996 10.5471L17.1033 15.4984C16.4021 15.8171 15.5974 15.8171 14.8963 15.4984Z" fill="white"/>
</svg>
