<svg width="32" height="32" viewBox="0 0 32 32" fill="none" xmlns="http://www.w3.org/2000/svg">
<path d="M8.00008 10.6666H5.33341C3.86066 10.6666 2.66675 11.8605 2.66675 13.3333V25.3333C2.66675 26.8061 3.86066 28 5.33341 28H8.00008C9.47284 28 10.6667 26.8061 10.6667 25.3333V13.3333C10.6667 11.8605 9.47284 10.6666 8.00008 10.6666Z" fill="white"/>
<path opacity="0.4" d="M21.1693 28H16.2816C15.2286 28 14.1992 27.6883 13.3232 27.1043L11.2605 25.7292C10.8895 25.4819 10.6667 25.0656 10.6667 24.6198V13.6874C10.6667 13.4554 10.7273 13.2274 10.8424 13.0259L15.7122 4.50386C15.8902 4.19229 16.2215 4 16.5804 4H17.7717C20.434 4 22.022 6.96715 20.5452 9.18233L18.6667 12H25.918C27.6529 12 28.9258 13.6304 28.5051 15.3134L26.3434 23.9602C25.7498 26.3344 23.6166 28 21.1693 28Z" fill="white"/>
</svg>
