<svg width="31" height="26" viewBox="0 0 31 26" fill="none" xmlns="http://www.w3.org/2000/svg">
<path opacity="0.4" fill-rule="evenodd" clip-rule="evenodd" d="M0 2C0 0.895431 0.89543 0 2 0H28.6667C29.7712 0 30.6667 0.895431 30.6667 2C30.6667 3.10457 29.7712 4 28.6667 4H2C0.89543 4 0 3.10457 0 2Z" fill="#28303F"/>
<path fill-rule="evenodd" clip-rule="evenodd" d="M0 12.6667C0 11.5621 0.89543 10.6667 2 10.6667H28.6667C29.7712 10.6667 30.6667 11.5621 30.6667 12.6667C30.6667 13.7713 29.7712 14.6667 28.6667 14.6667H2C0.89543 14.6667 0 13.7713 0 12.6667Z" fill="#28303F"/>
<path opacity="0.4" fill-rule="evenodd" clip-rule="evenodd" d="M0 23.3333C0 22.2288 0.89543 21.3333 2 21.3333H28.6667C29.7712 21.3333 30.6667 22.2288 30.6667 23.3333C30.6667 24.4379 29.7712 25.3333 28.6667 25.3333H2C0.89543 25.3333 0 24.4379 0 23.3333Z" fill="#28303F"/>
</svg>
