<svg width="220" height="75" viewBox="0 0 220 75" fill="none" xmlns="http://www.w3.org/2000/svg">
<path d="M-1.73369e-08 73.6045L-2.74824e-10 1.16678L14.7098 1.16678L42.07 37.1425L35.2054 37.1425L61.7811 1.16678L76.4908 1.16678L76.4908 73.6045L61.2907 73.6045L61.2907 17.7934L67.3708 19.1547L39.2261 55.1304L37.2648 55.1304L10.1007 19.1547L15.2001 17.7934L15.2001 73.6045L-1.73369e-08 73.6045Z" fill="white"/>
<path d="M88.3674 73.6045L88.3674 20.5159L103.077 20.5159L103.077 73.6045L88.3674 73.6045ZM88.3674 15.7515L88.3674 1.16678L103.077 1.16678L103.077 15.7515L88.3674 15.7515Z" fill="white"/>
<path d="M113.841 73.6045L113.841 2.68143e-08L128.551 3.02791e-08L128.551 73.6045L113.841 73.6045Z" fill="white"/>
<path d="M139.315 73.6045L139.315 20.5159L154.025 20.5159L154.025 73.6045L139.315 73.6045ZM139.315 15.7515L139.315 1.16678L154.025 1.16678L154.025 15.7515L139.315 15.7515Z" fill="white"/>
<path d="M191.365 74.7712C186.069 74.7712 181.232 73.5721 176.851 71.1737C172.536 68.7753 169.072 65.5018 166.456 61.3533C163.907 57.1399 162.632 52.3755 162.632 47.0602C162.632 41.68 163.907 36.9157 166.456 32.7671C169.072 28.6186 172.536 25.3451 176.851 22.9467C181.232 20.5483 186.069 19.3491 191.365 19.3491C196.661 19.3491 201.466 20.5483 205.781 22.9467C210.095 25.3451 213.528 28.6186 216.077 32.7671C218.692 36.9157 220 41.68 220 47.0602C220 52.3755 218.692 57.1399 216.077 61.3533C213.528 65.5018 210.095 68.7753 205.781 71.1737C201.466 73.5721 196.661 74.7712 191.365 74.7712ZM191.365 61.645C194.045 61.645 196.366 61.0292 198.328 59.7976C200.354 58.5659 201.923 56.8482 203.035 54.6443C204.212 52.4403 204.8 49.9123 204.8 47.0602C204.8 44.2081 204.212 41.7124 203.035 39.5733C201.923 37.3694 200.354 35.6517 198.328 34.4201C196.366 33.1236 194.045 32.4754 191.365 32.4754C188.685 32.4754 186.331 33.1236 184.304 34.4201C182.278 35.6517 180.676 37.3694 179.499 39.5733C178.388 41.7124 177.832 44.2081 177.832 47.0602C177.832 49.9123 178.388 52.4403 179.499 54.6443C180.676 56.8482 182.278 58.5659 184.304 59.7976C186.331 61.0292 188.685 61.645 191.365 61.645Z" fill="white"/>
</svg>
