<svg width="138" height="45" viewBox="0 0 138 45" fill="none" xmlns="http://www.w3.org/2000/svg">
<path d="M54.5597 14.4858C47.4564 14.4858 42.2998 19.5639 42.2998 26.5596C42.2998 33.5552 47.4553 38.6322 54.5597 38.6322C61.6642 38.6322 66.8196 33.5541 66.8196 26.5596C66.8196 19.565 61.6631 14.4858 54.5597 14.4858ZM54.5597 33.514C50.4864 33.514 47.6406 30.6548 47.6406 26.5596C47.6406 22.4643 50.4864 19.6096 54.5597 19.6096C58.633 19.6096 61.4777 22.4688 61.4777 26.5629C61.4777 30.657 58.633 33.514 54.5597 33.514Z" fill="#4B4B4B"/>
<path d="M73.3682 6.05225H70.599C69.9002 6.05225 69.3337 6.62163 69.3337 7.32399V36.8205C69.3337 37.5229 69.9002 38.0923 70.599 38.0923H73.3682C74.067 38.0923 74.6335 37.5229 74.6335 36.8205V7.32399C74.6335 6.62163 74.067 6.05225 73.3682 6.05225Z" fill="#4B4B4B"/>
<path d="M102.219 14.4858C99.1021 14.4858 96.5172 15.6962 94.8512 17.8727C93.1664 15.6973 90.5881 14.4858 87.5037 14.4858C81.6213 14.4858 77.9719 18.4438 77.9719 24.8148V36.8205C77.9718 36.9875 78.0044 37.153 78.0679 37.3073C78.1315 37.4617 78.2247 37.6019 78.3422 37.7201C78.4597 37.8382 78.5993 37.9319 78.7528 37.9957C78.9064 38.0596 79.071 38.0924 79.2372 38.0922H82.012C82.1782 38.0924 82.3428 38.0596 82.4963 37.9957C82.6499 37.9319 82.7894 37.8382 82.907 37.7201C83.0245 37.6019 83.1177 37.4617 83.1812 37.3073C83.2447 37.153 83.2774 36.9875 83.2772 36.8205V24.8148C83.2772 21.4559 84.8544 19.6063 87.7168 19.6063C90.5792 19.6063 92.2385 21.5027 92.2385 24.8148V36.8205C92.2384 36.9875 92.271 37.153 92.3346 37.3073C92.3981 37.4617 92.4913 37.6019 92.6088 37.7201C92.7263 37.8382 92.8659 37.9319 93.0195 37.9957C93.173 38.0596 93.3376 38.0924 93.5038 38.0922H96.2786C96.4448 38.0924 96.6094 38.0596 96.7629 37.9957C96.9165 37.9319 97.0561 37.8382 97.1736 37.7201C97.2911 37.6019 97.3843 37.4617 97.4478 37.3073C97.5114 37.153 97.544 36.9875 97.5439 36.8205V24.8148C97.5316 21.5061 99.1643 19.6096 102.012 19.6096C104.86 19.6096 106.452 21.4592 106.452 24.8182V36.8238C106.452 37.1611 106.585 37.4846 106.822 37.7231C107.06 37.9616 107.382 38.0956 107.717 38.0956H110.492C110.827 38.0956 111.149 37.9616 111.387 37.7231C111.624 37.4846 111.757 37.1611 111.757 36.8238V24.8148C111.751 18.4438 108.098 14.4858 102.219 14.4858Z" fill="#4B4B4B"/>
<path d="M125.739 14.4858C118.635 14.4858 113.48 19.5639 113.48 26.5596C113.48 33.5552 118.635 38.6322 125.739 38.6322C132.842 38.6322 138 33.5552 138 26.5596C138 19.5639 132.843 14.4858 125.739 14.4858ZM125.739 33.514C121.665 33.514 118.821 30.6548 118.821 26.5596C118.821 22.4643 121.665 19.6096 125.739 19.6096C129.812 19.6096 132.658 22.4688 132.658 26.5629C132.658 30.657 129.813 33.514 125.739 33.514Z" fill="#4B4B4B"/>
<path d="M5.03038 10.3356C-1.66665 17.033 -1.67628 27.9229 4.99852 34.6344L10.1934 29.4385C6.38283 25.5921 6.39321 19.3638 10.226 15.5308C14.0588 11.6978 20.3231 11.6874 24.1662 15.5308C27.9879 19.3527 28.0079 25.5558 24.2307 29.4051L29.4256 34.6003C36.0685 27.8866 36.0478 17.0234 29.3619 10.3356C22.6552 3.62707 11.7385 3.62707 5.03038 10.3356Z" fill="#B3DFF2"/>
<path d="M27.5225 36.2596L17.2291 25.9656L6.90674 36.2915C12.9983 40.8412 21.4406 40.8308 27.5225 36.2596Z" fill="#FFD26A"/>
</svg>
